{
	"asset":{
		"generator":"Khronos glTF Blender I/O v4.1.62",
		"version":"2.0"
	},
	"extensionsUsed":[
		"KHR_materials_specular",
		"KHR_materials_ior"
	],
	"scene":0,
	"scenes":[
		{
			"name":"Scene",
			"nodes":[
				0
			]
		}
	],
	"nodes":[
		{
			"mesh":0,
			"name":"obj",
			"rotation":[
				0.7071067690849304,
				0,
				0,
				0.7071068286895752
			],
			"scale":[
				0.0016942330403253436,
				0.0016942330403253436,
				0.0016942330403253436
			],
			"translation":[
				0,
				0.3950415551662445,
				0
			]
		}
	],
	"animations":[
		{
			"channels":[
				{
					"sampler":0,
					"target":{
						"node":0,
						"path":"rotation"
					}
				}
			],
			"name":"objAction.001",
			"samplers":[
				{
					"input":16,
					"interpolation":"LINEAR",
					"output":17
				}
			]
		}
	],
	"materials":[
		{
			"doubleSided":true,
			"extensions":{
				"KHR_materials_specular":{
					"specularFactor":0
				},
				"KHR_materials_ior":{
					"ior":1.4500000476837158
				}
			},
			"name":"(H)SwatchOn_QL-012686_Double-faced_ponte-interlock_Jersey_FRONT",
			"pbrMetallicRoughness":{
				"baseColorTexture":{
					"index":0
				},
				"metallicFactor":0
			}
		},
		{
			"doubleSided":true,
			"extensions":{
				"KHR_materials_specular":{
					"specularFactor":0.9750000834465027
				},
				"KHR_materials_ior":{
					"ior":1.4500000476837158
				}
			},
			"name":"Material1991",
			"pbrMetallicRoughness":{
				"baseColorFactor":[
					0.026273155584931374,
					0.0242364052683115,
					0.025095142424106598,
					1
				],
				"metallicFactor":0,
				"roughnessFactor":0.7470177412033081
			}
		},
		{
			"doubleSided":true,
			"extensions":{
				"KHR_materials_specular":{
					"specularFactor":0.9750000834465027
				},
				"KHR_materials_ior":{
					"ior":1.4500000476837158
				}
			},
			"name":"Material1967",
			"pbrMetallicRoughness":{
				"baseColorFactor":[
					0.01642652042210102,
					0.015199895016849041,
					0.015737025067210197,
					1
				],
				"metallicFactor":0,
				"roughnessFactor":0.7470177412033081
			}
		},
		{
			"doubleSided":true,
			"extensions":{
				"KHR_materials_specular":{
					"specularFactor":0.9750000834465027
				},
				"KHR_materials_ior":{
					"ior":1.4500000476837158
				}
			},
			"name":"Material2104",
			"pbrMetallicRoughness":{
				"baseColorFactor":[
					0.010488750413060188,
					0.010862302035093307,
					0.009500943124294281,
					1
				],
				"metallicFactor":0,
				"roughnessFactor":0.7470177412033081
			}
		}
	],
	"meshes":[
		{
			"name":"obj",
			"primitives":[
				{
					"attributes":{
						"POSITION":0,
						"NORMAL":1,
						"TEXCOORD_0":2
					},
					"indices":3,
					"material":0
				},
				{
					"attributes":{
						"POSITION":4,
						"NORMAL":5,
						"TEXCOORD_0":6
					},
					"indices":7,
					"material":1
				},
				{
					"attributes":{
						"POSITION":8,
						"NORMAL":9,
						"TEXCOORD_0":10
					},
					"indices":11,
					"material":2
				},
				{
					"attributes":{
						"POSITION":12,
						"NORMAL":13,
						"TEXCOORD_0":14
					},
					"indices":15,
					"material":3
				}
			]
		}
	],
	"textures":[
		{
			"sampler":0,
			"source":0
		}
	],
	"images":[
		{
			"mimeType":"image/png",
			"name":"arte-1",
			"uri":"arte-1.png"
		}
	],
	"accessors":[
		{
			"bufferView":0,
			"componentType":5126,
			"count":48324,
			"max":[
				181.9024658203125,
				114.16744995117188,
				-348.2676086425781
			],
			"min":[
				-179.83021545410156,
				-79.86138153076172,
				-738.713623046875
			],
			"type":"VEC3"
		},
		{
			"bufferView":1,
			"componentType":5126,
			"count":48324,
			"type":"VEC3"
		},
		{
			"bufferView":2,
			"componentType":5126,
			"count":48324,
			"type":"VEC2"
		},
		{
			"bufferView":3,
			"componentType":5123,
			"count":275004,
			"type":"SCALAR"
		},
		{
			"bufferView":4,
			"componentType":5126,
			"count":249168,
			"max":[
				174.318603515625,
				111.85163879394531,
				-364.3868103027344
			],
			"min":[
				-172.7567138671875,
				-77.26470184326172,
				-586.0264892578125
			],
			"type":"VEC3"
		},
		{
			"bufferView":5,
			"componentType":5126,
			"count":249168,
			"type":"VEC3"
		},
		{
			"bufferView":6,
			"componentType":5126,
			"count":249168,
			"type":"VEC2"
		},
		{
			"bufferView":7,
			"componentType":5125,
			"count":991104,
			"type":"SCALAR"
		},
		{
			"bufferView":8,
			"componentType":5126,
			"count":98580,
			"max":[
				175.6542510986328,
				113.33610534667969,
				-364.11328125
			],
			"min":[
				-174.1416015625,
				-78.84527587890625,
				-588.0908203125
			],
			"type":"VEC3"
		},
		{
			"bufferView":9,
			"componentType":5126,
			"count":98580,
			"type":"VEC3"
		},
		{
			"bufferView":10,
			"componentType":5126,
			"count":98580,
			"type":"VEC2"
		},
		{
			"bufferView":11,
			"componentType":5125,
			"count":507780,
			"type":"SCALAR"
		},
		{
			"bufferView":12,
			"componentType":5126,
			"count":16748,
			"max":[
				69.30880737304688,
				7.983782768249512,
				-722.1342163085938
			],
			"min":[
				-67.40215301513672,
				-36.864681243896484,
				-731.7105712890625
			],
			"type":"VEC3"
		},
		{
			"bufferView":13,
			"componentType":5126,
			"count":16748,
			"type":"VEC3"
		},
		{
			"bufferView":14,
			"componentType":5126,
			"count":16748,
			"type":"VEC2"
		},
		{
			"bufferView":15,
			"componentType":5123,
			"count":86268,
			"type":"SCALAR"
		},
		{
			"bufferView":16,
			"componentType":5126,
			"count":356,
			"max":[
				13.9
			],
			"min":[
				2.066666666666667
			],
			"type":"SCALAR"
		},
		{
			"bufferView":17,
			"componentType":5126,
			"count":356,
			"type":"VEC4"
		}
	],
	"bufferViews":[
		{
			"buffer":0,
			"byteLength":579888,
			"byteOffset":0,
			"target":34962
		},
		{
			"buffer":0,
			"byteLength":579888,
			"byteOffset":579888,
			"target":34962
		},
		{
			"buffer":0,
			"byteLength":386592,
			"byteOffset":1159776,
			"target":34962
		},
		{
			"buffer":0,
			"byteLength":550008,
			"byteOffset":1546368,
			"target":34963
		},
		{
			"buffer":0,
			"byteLength":2990016,
			"byteOffset":2096376,
			"target":34962
		},
		{
			"buffer":0,
			"byteLength":2990016,
			"byteOffset":5086392,
			"target":34962
		},
		{
			"buffer":0,
			"byteLength":1993344,
			"byteOffset":8076408,
			"target":34962
		},
		{
			"buffer":0,
			"byteLength":3964416,
			"byteOffset":10069752,
			"target":34963
		},
		{
			"buffer":0,
			"byteLength":1182960,
			"byteOffset":14034168,
			"target":34962
		},
		{
			"buffer":0,
			"byteLength":1182960,
			"byteOffset":15217128,
			"target":34962
		},
		{
			"buffer":0,
			"byteLength":788640,
			"byteOffset":16400088,
			"target":34962
		},
		{
			"buffer":0,
			"byteLength":2031120,
			"byteOffset":17188728,
			"target":34963
		},
		{
			"buffer":0,
			"byteLength":200976,
			"byteOffset":19219848,
			"target":34962
		},
		{
			"buffer":0,
			"byteLength":200976,
			"byteOffset":19420824,
			"target":34962
		},
		{
			"buffer":0,
			"byteLength":133984,
			"byteOffset":19621800,
			"target":34962
		},
		{
			"buffer":0,
			"byteLength":172536,
			"byteOffset":19755784,
			"target":34963
		},
		{
			"buffer":0,
			"byteLength":1424,
			"byteOffset":19928320
		},
		{
			"buffer":0,
			"byteLength":5696,
			"byteOffset":19929744
		}
	],
	"samplers":[
		{
			"magFilter":9729,
			"minFilter":9987
		}
	],
	"buffers":[
		{
			"byteLength":19935440,
			"uri":"camiseta.bin"
		}
	]
}
